<?xml version="1.0" encoding="UTF-8" standalone="no"?>
<svg width="154px" height="87px" viewBox="0 0 154 87" version="1.1" xmlns="http://www.w3.org/2000/svg" xmlns:xlink="http://www.w3.org/1999/xlink" xmlns:sketch="http://www.bohemiancoding.com/sketch/ns">
    <!-- Generator: Sketch 3.4.2 (15855) - http://www.bohemiancoding.com/sketch -->
    <title>icons</title>
    <desc>Created with Sketch.</desc>
    <defs></defs>
    <g id="Page-1" stroke="none" stroke-width="1" fill="none" fill-rule="evenodd" sketch:type="MSPage">
        <g id="icons" sketch:type="MSArtboardGroup">
            <g sketch:type="MSLayerGroup">
                <g id="fullscreen-exit" transform="translate(125.000000, 0.000000)" sketch:type="MSShapeGroup">
                    <path d="M5.71428571,15.2142857 L3,15.2142857 L3,22 L9.78571429,22 L9.78571429,19.2857143 L5.71428571,19.2857143 L5.71428571,15.2142857 L5.71428571,15.2142857 Z M3,9.78571429 L5.71428571,9.78571429 L5.71428571,5.71428571 L9.78571429,5.71428571 L9.78571429,3 L3,3 L3,9.78571429 L3,9.78571429 Z M19.2857143,19.2857143 L15.2142857,19.2857143 L15.2142857,22 L22,22 L22,15.2142857 L19.2857143,15.2142857 L19.2857143,19.2857143 L19.2857143,19.2857143 Z M15.2142857,3 L15.2142857,5.71428571 L19.2857143,5.71428571 L19.2857143,9.78571429 L22,9.78571429 L22,3 L15.2142857,3 L15.2142857,3 Z" id="Shape" fill="#FFFFFF"></path>
                    <path d="M0,0 L25,0 L25,25 L0,25 L0,0 Z" id="Shape"></path>
                </g>
                <g id="fullscreen" transform="translate(100.000000, 0.000000)" sketch:type="MSShapeGroup">
                    <path d="M3,17.9285714 L7.07142857,17.9285714 L7.07142857,22 L9.78571429,22 L9.78571429,15.2142857 L3,15.2142857 L3,17.9285714 L3,17.9285714 Z M7.07142857,7.07142857 L3,7.07142857 L3,9.78571429 L9.78571429,9.78571429 L9.78571429,3 L7.07142857,3 L7.07142857,7.07142857 L7.07142857,7.07142857 Z M15.2142857,22 L17.9285714,22 L17.9285714,17.9285714 L22,17.9285714 L22,15.2142857 L15.2142857,15.2142857 L15.2142857,22 L15.2142857,22 Z M17.9285714,7.07142857 L17.9285714,3 L15.2142857,3 L15.2142857,9.78571429 L22,9.78571429 L22,7.07142857 L17.9285714,7.07142857 L17.9285714,7.07142857 Z" id="Shape" fill="#FFFFFF"></path>
                    <path d="M0,0 L25,0 L25,25 L0,25 L0,0 Z" id="Shape"></path>
                </g>
                <g id="play" transform="translate(75.000000, 0.000000)" sketch:type="MSShapeGroup">
                    <path d="M5,3 L5,22 L19.9285714,12.5 L5,3 Z" id="Shape" fill="#FFFFFF"></path>
                    <path d="M0,0 L25,0 L25,25 L0,25 L0,0 Z" id="Shape"></path>
                </g>
                <g id="pause" transform="translate(50.000000, 0.000000)" sketch:type="MSShapeGroup">
                    <path d="M4,22 L9.42857143,22 L9.42857143,3 L4,3 L4,22 L4,22 Z M14.8571429,3 L14.8571429,22 L20.2857143,22 L20.2857143,3 L14.8571429,3 L14.8571429,3 Z" id="Shape" fill="#FFFFFF"></path>
                    <path d="M0,0 L25,0 L25,25 L0,25 L0,0 Z" id="Shape"></path>
                </g>
                <g id="volume-mute" transform="translate(25.000000, 0.000000)" sketch:type="MSShapeGroup">
                    <path d="M7,8.9375 L7,16.0625 L11.75,16.0625 L17.6875,22 L17.6875,3 L11.75,8.9375 L7,8.9375 L7,8.9375 Z" id="Shape" fill="#FFFFFF"></path>
                    <path d="M0,0 L25,0 L25,25 L0,25 L0,0 Z" id="Shape"></path>
                </g>
                <g id="volume-up" sketch:type="MSShapeGroup">
                    <path d="M3,9.25028506 L3,15.7497149 L7.33295325,15.7497149 L12.7491448,21.1659065 L12.7491448,3.8340935 L7.33295325,9.25028506 L3,9.25028506 L3,9.25028506 Z M17.6237172,12.5 C17.6237172,10.5826682 16.5188141,8.93614595 14.9156214,8.1345496 L14.9156214,16.854618 C16.5188141,16.063854 17.6237172,14.4173318 17.6237172,12.5 L17.6237172,12.5 Z M14.9156214,3 L14.9156214,5.23147092 C18.0461802,6.16305587 20.331813,9.06613455 20.331813,12.5 C20.331813,15.9338655 18.0461802,18.8369441 14.9156214,19.7685291 L14.9156214,22 C19.2594071,21.0142531 22.4982896,17.13626 22.4982896,12.5 C22.4982896,7.86374002 19.2594071,3.98574686 14.9156214,3 L14.9156214,3 Z" id="Shape" fill="#FFFFFF"></path>
                    <path d="M0,0 L25,0 L25,25 L0,25 L0,0 Z" id="Shape"></path>
                </g>
                <g id="big-play" transform="translate(5.000000, 29.000000)" sketch:type="MSShapeGroup">
                    <rect id="Rectangle-5" stroke="#FFFFFF" stroke-width="3" x="0" y="0" width="53" height="53" rx="100"></rect>
                    <path d="M20.2647059,14.0294118 L20.2647059,39.0867917 L39.9526472,26.5581017 L20.2647059,14.0294118 Z" id="Shape" fill="#FFFFFF"></path>
                </g>
            </g>
        </g>
    </g>
</svg>