<?xml version="1.0" encoding="utf-8"?>
<!-- Generator: Adobe Illustrator 16.0.0, SVG Export Plug-In . SVG Version: 6.00 Build 0)  -->
<!DOCTYPE svg PUBLIC "-//W3C//DTD SVG 1.1//EN" "http://www.w3.org/Graphics/SVG/1.1/DTD/svg11.dtd">
<svg version="1.1" id="Layer_1" xmlns="http://www.w3.org/2000/svg" xmlns:xlink="http://www.w3.org/1999/xlink" x="0px" y="0px"
	 width="271px" height="44.982px" viewBox="0 0 271 44.982" enable-background="new 0 0 271 44.982" xml:space="preserve">
<g>
	<polygon fill="#FFFFFF" points="128.302,18.545 128.302,26.441 132.797,26.441 139.526,31.962 139.53,13.02 132.8,18.545 	"/>
	<g>
		<path fill="#FFFFFF" d="M83.917,29.41c0,1.41-1.258,2.553-2.809,2.553l0,0c-1.551,0-2.809-1.143-2.809-2.553V16.379
			c0-1.41,1.257-2.554,2.809-2.554l0,0c1.551,0,2.809,1.144,2.809,2.554V29.41L83.917,29.41z"/>
		<path fill="#FFFFFF" d="M94.015,29.41c0,1.41-1.258,2.553-2.809,2.553l0,0c-1.551,0-2.809-1.143-2.809-2.553V16.379
			c0-1.41,1.258-2.554,2.81-2.554l0,0c1.55,0,2.808,1.144,2.808,2.554V29.41L94.015,29.41z"/>
	</g>
	<path fill="#FFFFFF" d="M26.299,15.605c0-0.983,0.795-1.78,1.778-1.78c0.306,0,0.498,0.08,0.84,0.215l12.484,7.264
		c0.579,0.344,0.849,0.897,0.952,1.534v0.179c-0.104,0.638-0.373,1.19-0.952,1.535l-12.484,7.265
		c-0.342,0.135-0.534,0.215-0.84,0.215c-0.981,0-1.778-0.797-1.778-1.78V15.605L26.299,15.605z"/>
	<path id="volume_3" fill="#FFFFFF" d="M175.473,18.618v7.896h4.496l6.729,5.521l0.004-18.943l-6.73,5.526H175.473L175.473,18.618z
		 M189.28,17.709c-0.395-0.389-1.021-0.389-1.416,0.003c-0.389,0.391-0.389,1.023,0.002,1.415v-0.002
		c0.863,0.864,1.396,2.05,1.396,3.366c0,1.312-0.531,2.496-1.396,3.357c-0.395,0.393-0.395,1.021-0.002,1.42
		c0.193,0.195,0.45,0.293,0.707,0.293c0.258,0,0.521-0.098,0.709-0.293c1.223-1.221,1.979-2.916,1.979-4.775
		C191.263,20.626,190.501,18.93,189.28,17.709z M191.575,15.416c-0.395-0.391-1.021-0.391-1.414,0c-0.393,0.391-0.393,1.025,0,1.414
		c1.451,1.451,2.354,3.447,2.354,5.661c0,2.212-0.896,4.207-2.353,5.66c-0.396,0.389-0.396,1.021,0,1.413
		c0.188,0.193,0.451,0.294,0.709,0.294c0.257,0,0.521-0.101,0.707-0.294c1.812-1.812,2.938-4.315,2.937-7.073
		C194.509,19.733,193.386,17.223,191.575,15.416z M193.753,13.239c-0.396-0.391-1.021-0.389-1.412,0.002
		c-0.393,0.389-0.393,1.023,0.002,1.413h-0.002c2.01,2.009,3.246,4.772,3.246,7.838c0,3.062-1.236,5.828-3.244,7.837
		c-0.393,0.392-0.393,1.021,0.002,1.416c0.193,0.188,0.449,0.291,0.707,0.291c0.256,0,0.514-0.104,0.707-0.293
		c2.361-2.366,3.832-5.646,3.828-9.251C197.591,18.881,196.12,15.602,193.753,13.239z"/>
	<g>
		<g>
			<polygon fill="#FFFFFF" points="234.873,13.32 244.701,13.32 244.701,23.145 			"/>
			<path fill="#FFFFFF" d="M236.184,18.561l3.93-3.931c0.871-0.87,2.381-0.896,3.275,0c0.896,0.895,0.871,2.405,0,3.274l-3.93,3.931
				c-0.869,0.87-2.38,0.896-3.275,0C235.288,20.94,235.314,19.429,236.184,18.561z"/>
		</g>
		<g>
			<polygon fill="#FFFFFF" points="236.184,31.662 226.358,31.662 226.358,21.835 			"/>
			<path fill="#FFFFFF" d="M234.873,26.42l-3.931,3.932c-0.869,0.869-2.38,0.896-3.274,0c-0.896-0.896-0.869-2.405,0-3.274
				l3.93-3.932c0.871-0.87,2.381-0.896,3.275,0C235.77,24.042,235.743,25.551,234.873,26.42z"/>
		</g>
	</g>
</g>
</svg>
