<?xml version="1.0" encoding="utf-8"?>
<!-- Generator: Adobe Illustrator 16.0.0, SVG Export Plug-In . SVG Version: 6.00 Build 0)  -->
<!DOCTYPE svg PUBLIC "-//W3C//DTD SVG 1.1//EN" "http://www.w3.org/Graphics/SVG/1.1/DTD/svg11.dtd">
<svg version="1.1" id="Layer_1" xmlns="http://www.w3.org/2000/svg" xmlns:xlink="http://www.w3.org/1999/xlink" x="0px" y="0px"
	 width="32px" height="32px" viewBox="0 0 32 32" enable-background="new 0 0 32 32" xml:space="preserve">
<g>
	<g>
		<polygon fill="#FFFFFF" points="15.344,6.829 25.172,6.829 25.172,16.654 		"/>
		<path fill="#FFFFFF" d="M16.654,12.07l3.93-3.931c0.871-0.87,2.381-0.896,3.275,0c0.896,0.895,0.871,2.405,0,3.274l-3.93,3.931
			c-0.869,0.87-2.379,0.896-3.275,0C15.759,14.449,15.785,12.938,16.654,12.07z"/>
	</g>
	<g>
		<polygon fill="#FFFFFF" points="16.654,25.171 6.829,25.171 6.829,15.345 		"/>
		<path fill="#FFFFFF" d="M15.344,19.93l-3.931,3.931c-0.869,0.87-2.38,0.896-3.274,0c-0.896-0.896-0.87-2.405,0-3.274l3.93-3.932
			c0.87-0.87,2.38-0.895,3.275,0C16.24,17.551,16.214,19.061,15.344,19.93z"/>
	</g>
</g>
</svg>
