<?xml version="1.0" encoding="utf-8"?>
<!-- Generator: Adobe Illustrator 16.0.0, SVG Export Plug-In . SVG Version: 6.00 Build 0)  -->
<!DOCTYPE svg PUBLIC "-//W3C//DTD SVG 1.1//EN" "http://www.w3.org/Graphics/SVG/1.1/DTD/svg11.dtd">
<svg version="1.1" id="Layer_1" xmlns="http://www.w3.org/2000/svg" xmlns:xlink="http://www.w3.org/1999/xlink" x="0px" y="0px"
	 width="32px" height="32px" viewBox="0 0 32 32" enable-background="new 0 0 32 32" xml:space="preserve">
<g>
	<path fill="#FFFFFF" d="M13.759,22.516c0,1.41-1.258,2.553-2.809,2.553l0,0c-1.551,0-2.809-1.143-2.809-2.553V9.485
		c0-1.41,1.257-2.554,2.809-2.554l0,0c1.551,0,2.809,1.144,2.809,2.554V22.516L13.759,22.516z"/>
	<path fill="#FFFFFF" d="M23.858,22.516c0,1.41-1.258,2.553-2.809,2.553l0,0c-1.551,0-2.809-1.143-2.809-2.553V9.485
		c0-1.41,1.258-2.554,2.81-2.554l0,0c1.55,0,2.808,1.144,2.808,2.554V22.516L23.858,22.516z"/>
</g>
</svg>
