<?xml version="1.0" encoding="utf-8"?>
<!-- Generator: Adobe Illustrator 16.0.0, SVG Export Plug-In . SVG Version: 6.00 Build 0)  -->
<!DOCTYPE svg PUBLIC "-//W3C//DTD SVG 1.1//EN" "http://www.w3.org/Graphics/SVG/1.1/DTD/svg11.dtd">
<svg version="1.1" id="Layer_1" xmlns="http://www.w3.org/2000/svg" xmlns:xlink="http://www.w3.org/1999/xlink" x="0px" y="0px"
	 width="800px" height="450px" viewBox="0 0 800 450" enable-background="new 0 0 800 450" xml:space="preserve">
<rect x="-14" y="-41" fill="#27AAE1" width="827" height="533"/>
<g>
	<path fill="#FFFFFF" d="M175.336,178.076h29.861c4.106,0,8.037,0.415,11.79,1.244c3.751,0.83,7.03,2.251,9.835,4.266
		c2.804,2.015,5.036,4.662,6.695,7.939c1.659,3.279,2.488,7.328,2.488,12.146c0,4.739-0.85,8.81-2.548,12.205
		c-1.699,3.397-3.97,6.182-6.813,8.354c-2.844,2.174-6.123,3.792-9.835,4.858c-3.714,1.066-7.584,1.6-11.612,1.6h-9.479v24.41
		h-20.382V178.076z M204.249,214.572c4.029,0,7.01-0.948,8.946-2.844c1.935-1.896,2.903-4.581,2.903-8.058
		c0-3.476-1.027-5.925-3.081-7.347c-2.055-1.422-4.977-2.133-8.769-2.133h-8.531v20.381h8.532V214.572z"/>
	<path fill="#FFFFFF" d="M246.906,172.625h20.382v62.328c0,2.056,0.374,3.438,1.126,4.146c0.749,0.711,1.48,1.066,2.191,1.066
		c0.395,0,0.729,0,1.008,0c0.275,0,0.651-0.077,1.125-0.236l2.37,14.93c-1.107,0.476-2.47,0.869-4.088,1.187
		c-1.62,0.313-3.575,0.474-5.865,0.474c-3.478,0-6.381-0.533-8.71-1.6c-2.331-1.066-4.206-2.587-5.628-4.562
		c-1.422-1.974-2.43-4.323-3.022-7.049c-0.592-2.727-0.889-5.748-0.889-9.065V172.625z"/>
	<path fill="#FFFFFF" d="M280.321,238.271c0-6.162,2.527-11,7.584-14.517c5.055-3.515,13.271-5.866,24.646-7.051
		c-0.474-4.106-3.24-6.162-8.294-6.162c-2.134,0-4.385,0.415-6.755,1.244c-2.37,0.83-5.095,2.074-8.176,3.733l-7.11-13.271
		c4.187-2.528,8.414-4.462,12.68-5.807c4.266-1.342,8.728-2.014,13.39-2.014c7.661,0,13.687,2.192,18.07,6.576
		c4.385,4.384,6.577,11.435,6.577,21.152v32.941h-16.59l-1.422-5.688h-0.474c-2.37,2.133-4.879,3.851-7.524,5.154
		c-2.648,1.304-5.59,1.955-8.828,1.955c-2.767,0-5.255-0.494-7.465-1.481c-2.213-0.986-4.089-2.312-5.629-3.97
		c-1.541-1.658-2.707-3.594-3.496-5.807C280.716,243.052,280.321,240.721,280.321,238.271z M299.755,236.611
		c0,2.845,1.816,4.267,5.45,4.267c1.659,0,3.021-0.374,4.088-1.125c1.067-0.75,2.152-1.719,3.259-2.903v-8.058
		c-4.898,0.711-8.256,1.776-10.072,3.199C300.662,233.413,299.755,234.953,299.755,236.611z"/>
	<path fill="#FFFFFF" d="M351.596,261.26c0.67,0.157,1.321,0.236,1.955,0.236c2.764,0,4.838-0.533,6.221-1.6
		c1.381-1.066,2.389-2.51,3.021-4.326l0.711-2.605L340.99,195.85h20.381l7.11,22.75c0.868,2.767,1.618,5.511,2.251,8.236
		c0.631,2.725,1.304,5.589,2.015,8.591h0.474c0.632-2.844,1.244-5.647,1.837-8.413c0.593-2.765,1.244-5.569,1.955-8.414l5.925-22.75
		h19.434l-19.907,58.298c-1.582,4.029-3.182,7.504-4.8,10.429c-1.62,2.922-3.495,5.332-5.628,7.229
		c-2.133,1.896-4.562,3.297-7.288,4.205c-2.725,0.907-5.906,1.363-9.538,1.363c-2.056,0-3.733-0.102-5.036-0.297
		c-1.304-0.197-2.628-0.494-3.97-0.889l3.555-15.404C350.311,260.941,350.923,261.102,351.596,261.26z"/>
	<path fill="#FFFFFF" d="M435.547,195.85h16.59l1.422,7.228h0.476c2.369-2.29,4.917-4.305,7.643-6.043
		c2.727-1.736,6.104-2.606,10.131-2.606c4.029,0,7.365,0.811,10.015,2.429c2.646,1.62,4.758,3.97,6.34,7.05
		c2.447-2.527,5.095-4.739,7.938-6.635c2.844-1.896,6.28-2.844,10.311-2.844c6.477,0,11.216,2.192,14.219,6.576
		c3.002,4.384,4.503,10.25,4.503,17.596v36.497h-20.381v-33.89c0-3.792-0.474-6.319-1.422-7.584
		c-0.948-1.263-2.45-1.896-4.503-1.896c-2.529,0-5.293,1.501-8.295,4.503v38.867H470.15v-33.891c0-3.792-0.476-6.319-1.422-7.584
		c-0.948-1.263-2.449-1.896-4.504-1.896c-2.528,0-5.294,1.501-8.295,4.503v38.866h-20.382L435.547,195.85L435.547,195.85z"/>
	<path fill="#FFFFFF" d="M535.32,225.474c0-4.817,0.809-9.143,2.429-12.975c1.618-3.831,3.751-7.09,6.399-9.776
		c2.646-2.685,5.667-4.74,9.063-6.162s6.912-2.133,10.546-2.133c4.344,0,8.137,0.751,11.376,2.251
		c3.238,1.502,5.925,3.555,8.059,6.162c2.133,2.607,3.731,5.649,4.799,9.124c1.065,3.478,1.6,7.189,1.6,11.139
		c0,1.818-0.1,3.437-0.296,4.858c-0.198,1.422-0.376,2.488-0.533,3.199H554.99c0.947,3.792,2.646,6.399,5.096,7.821
		c2.447,1.422,5.332,2.133,8.65,2.133c2.053,0,4.047-0.297,5.982-0.889c1.936-0.594,3.971-1.481,6.104-2.666l6.636,12.086
		c-3.24,2.293-6.813,4.011-10.724,5.154c-3.91,1.145-7.524,1.719-10.844,1.719c-4.345,0-8.374-0.692-12.086-2.074
		c-3.714-1.381-6.933-3.396-9.656-6.043c-2.727-2.646-4.88-5.904-6.458-9.775C536.109,234.757,535.32,230.373,535.32,225.474z
		 M572.291,218.838c0-2.527-0.574-4.66-1.719-6.398c-1.146-1.737-3.259-2.607-6.339-2.607c-2.293,0-4.286,0.673-5.984,2.015
		c-1.699,1.345-2.864,3.674-3.495,6.991L572.291,218.838L572.291,218.838z"/>
	<path fill="#FFFFFF" d="M600.965,244.195c0-3.475,1.105-6.398,3.318-8.769c2.211-2.37,5.055-3.556,8.531-3.556
		c3.476,0,6.318,1.186,8.531,3.556c2.21,2.369,3.317,5.294,3.317,8.769c0,3.478-1.107,6.398-3.317,8.77
		c-2.213,2.37-5.057,3.555-8.531,3.555c-3.478,0-6.32-1.185-8.531-3.555C602.07,250.596,600.965,247.673,600.965,244.195z"/>
</g>
</svg>
